<svg width="100%" viewBox="0 0 680 370" xmlns="http://www.w3.org/2000/svg">
  <defs>
    <marker id="a7" viewBox="0 0 10 10" refX="8" refY="5" markerWidth="6" markerHeight="6" orient="auto-start-reverse">
      <path d="M2 1L8 5L2 9" fill="none" stroke="context-stroke" stroke-width="1.5" stroke-linecap="round" stroke-linejoin="round"/>
    </marker>
  </defs>

  <!-- Target Image -->
  <rect x="40" y="30" width="110" height="55" rx="6" fill="FILL_GRAY" stroke="STROKE_GRAY" stroke-width="0.5"/>
  <text x="95" y="50" text-anchor="middle" dominant-baseline="central" font-size="13" font-weight="600" fill="TEXT">Target image</text>
  <text x="95" y="70" text-anchor="middle" font-size="11" fill="MUTED">SD-generated</text>

  <!-- GPT Agent -->
  <rect x="210" y="20" width="170" height="75" rx="6" fill="FILL_ACCENT" stroke="STROKE_ACCENT" stroke-width="0.5"/>
  <text x="295" y="42" text-anchor="middle" dominant-baseline="central" font-size="13" font-weight="600" fill="TEXT">GPT agent</text>
  <text x="295" y="62" text-anchor="middle" font-size="11" fill="MUTED">Browse · Buy · Optimize</text>
  <text x="295" y="80" text-anchor="middle" font-size="11" fill="MUTED">(OpenAI Responses API)</text>

  <!-- Target → GPT -->
  <line x1="150" y1="57" x2="208" y2="57" stroke="TEXT" stroke-width="1" marker-end="url(#a7)"/>
  <text x="179" y="49" text-anchor="middle" font-size="10" fill="MUTED">Seed</text>

  <!-- MCP Server -->
  <rect x="450" y="20" width="150" height="75" rx="6" fill="FILL_BLUE" stroke="STROKE_BLUE" stroke-width="0.5"/>
  <text x="525" y="42" text-anchor="middle" dominant-baseline="central" font-size="13" font-weight="600" fill="TEXT">MCP server</text>
  <text x="525" y="62" text-anchor="middle" font-size="11" fill="MUTED">Search · Details · Buy</text>
  <text x="525" y="80" text-anchor="middle" font-size="11" fill="MUTED">(FastMCP)</text>

  <!-- GPT ↔ MCP -->
  <line x1="380" y1="48" x2="448" y2="48" stroke="STROKE_BLUE" stroke-width="1" marker-end="url(#a7)"/>
  <line x1="448" y1="68" x2="380" y2="68" stroke="STROKE_BLUE" stroke-width="1" stroke-dasharray="5 3" marker-end="url(#a7)"/>
  <text x="414" y="40" text-anchor="middle" font-size="10" fill="MUTED">Tool calls</text>
  <text x="414" y="82" text-anchor="middle" font-size="10" fill="MUTED">Prompts</text>

  <!-- Prompt marketplace data -->
  <rect x="470" y="120" width="110" height="45" rx="6" fill="FILL_GRAY" stroke="STROKE_GRAY" stroke-width="0.5"/>
  <text x="525" y="143" text-anchor="middle" dominant-baseline="central" font-size="12" font-weight="600" fill="TEXT">Marketplace</text>
  <text x="525" y="158" text-anchor="middle" font-size="10" fill="MUTED">1000s of prompts</text>

  <!-- MCP → Marketplace -->
  <line x1="525" y1="95" x2="525" y2="118" stroke="MUTED" stroke-width="0.5" stroke-dasharray="3 3"/>

  <!-- Stable Diffusion -->
  <rect x="210" y="150" width="170" height="60" rx="6" fill="FILL_PURPLE" stroke="STROKE_PURPLE" stroke-width="0.5"/>
  <text x="295" y="172" text-anchor="middle" dominant-baseline="central" font-size="13" font-weight="600" fill="TEXT">Stable Diffusion</text>
  <text x="295" y="192" text-anchor="middle" font-size="11" fill="MUTED">XL 1.0 / 2.1 + Compel</text>

  <!-- GPT → SD -->
  <line x1="295" y1="95" x2="295" y2="148" stroke="STROKE_PURPLE" stroke-width="1" marker-end="url(#a7)"/>
  <text x="310" y="125" font-size="10" fill="MUTED">Optimized prompt</text>

  <!-- Generated Image -->
  <rect x="210" y="250" width="170" height="50" rx="6" fill="FILL_GRAY" stroke="STROKE_GRAY" stroke-width="0.5"/>
  <text x="295" y="275" text-anchor="middle" dominant-baseline="central" font-size="13" font-weight="600" fill="TEXT">Generated image</text>

  <!-- SD → Generated -->
  <line x1="295" y1="210" x2="295" y2="248" stroke="TEXT" stroke-width="1" marker-end="url(#a7)"/>

  <!-- Similarity -->
  <rect x="450" y="250" width="150" height="50" rx="6" fill="FILL_CORAL" stroke="STROKE_CORAL" stroke-width="0.5"/>
  <text x="525" y="275" text-anchor="middle" dominant-baseline="central" font-size="13" font-weight="600" fill="TEXT">Image similarity</text>

  <!-- Generated → Similarity -->
  <line x1="380" y1="275" x2="448" y2="275" stroke="STROKE_CORAL" stroke-width="1" marker-end="url(#a7)"/>

  <!-- Target → Similarity (route down left side then across bottom) -->
  <path d="M95 85 L95 275 L448 275" fill="none" stroke="STROKE_CORAL" stroke-width="1" marker-end="url(#a7)"/>
  <text x="95" y="180" font-size="10" fill="MUTED">Compare</text>

  <!-- Feedback loop: Similarity → GPT -->
  <path d="M525 250 L525 230 L620 230 L620 57 L610 57" fill="none" stroke="MUTED" stroke-width="1" stroke-dasharray="5 3" marker-end="url(#a7)"/>
  <text x="635" y="145" font-size="10" fill="MUTED" transform="rotate(90,635,145)">Iterate</text>
</svg>
